<svg xmlns="http://www.w3.org/2000/svg" viewBox="0 0 24 24"><path fill="ACCENT1" d="M10 23v-3.09a9.27 9.27 0 0 1-1.76-.57 8.73 8.73 0 0 1-1.58-.84l-2.23 2.21-2.14-2.14 2.21-2.22A8.53 8.53 0 0 1 3.14 13H0v-3h3.14A8.53 8.53 0 0 1 4.5 6.65L2.29 4.43l2.14-2.14L6.65 4.5A8.53 8.53 0 0 1 10 3.14V0h3v3.14a8.53 8.53 0 0 1 3.35 1.36l2.22-2.24 2.14 2.14-2.21 2.25A8.53 8.53 0 0 1 19.89 10H23v3h-3.08a6.44 6.44 0 0 1-.37 1.73 6.17 6.17 0 0 1-1.05 1.77l2.21 2-2.15 2.15-2.21-2.15A8.53 8.53 0 0 1 13 19.89V23ZM7.5 11.5a4 4 0 0 1 4-4v-2a6 6 0 0 0-6 6Z"/><path fill="BODY" d="M22.5 12.5v-2h-3.07a8 8 0 0 0-1.62-3.9L20 4.43 18.57 3 16.4 5.19a8 8 0 0 0-3.9-1.62V.5h-2v3.07a8 8 0 0 0-3.9 1.62L4.43 3 3 4.43 5.19 6.6a8 8 0 0 0-1.62 3.9H.5v2h3.07a8 8 0 0 0 1.62 3.9L3 18.57 4.43 20l2.17-2.19a9 9 0 0 0 1.84 1.07 9.37 9.37 0 0 0 2.06.62v3h2v-3.07a8 8 0 0 0 3.9-1.62L18.57 20 20 18.57l-2.19-2a5.82 5.82 0 0 0 1.27-2 5.69 5.69 0 0 0 .35-2.07Zm-17-1a6 6 0 0 1 6-6v2a4 4 0 0 0-4 4Z"/><path fill="ACCENT2" stroke="ACCENT3" stroke-width=".7" d="M5.78 11.23a5.71 5.71 0 0 1 5.45-5.45v1.46a4.27 4.27 0 0 0-4 4Z"/></svg>